<mxfile host="Electron" modified="2024-05-28T05:34:06.215Z" agent="Mozilla/5.0 (Windows NT 10.0; Win64; x64) AppleWebKit/537.36 (KHTML, like Gecko) draw.io/24.4.8 Chrome/124.0.6367.207 Electron/30.0.6 Safari/537.36" etag="VjHcSRRNAYubKFN3DdG4" version="24.4.8" type="device">
  <diagram name="Seite-1" id="z-nN52VCwAJ4q3FItMZO">
    <mxGraphModel dx="2074" dy="1197" grid="1" gridSize="10" guides="1" tooltips="1" connect="1" arrows="1" fold="1" page="1" pageScale="1" pageWidth="2336" pageHeight="1654" math="0" shadow="0">
      <root>
        <mxCell id="0" />
        <mxCell id="1" parent="0" />
        <mxCell id="JdOpnIXiRDE0CS_GIkP6-1" value="" style="rounded=0;whiteSpace=wrap;html=1;" vertex="1" parent="1">
          <mxGeometry x="200" y="200" width="120" height="310" as="geometry" />
        </mxCell>
        <mxCell id="JdOpnIXiRDE0CS_GIkP6-2" value="v" style="rounded=0;whiteSpace=wrap;html=1;" vertex="1" parent="1">
          <mxGeometry x="400" y="200" width="120" height="310" as="geometry" />
        </mxCell>
        <mxCell id="JdOpnIXiRDE0CS_GIkP6-3" value="" style="rounded=0;whiteSpace=wrap;html=1;" vertex="1" parent="1">
          <mxGeometry x="640" y="200" width="120" height="310" as="geometry" />
        </mxCell>
        <mxCell id="JdOpnIXiRDE0CS_GIkP6-4" value="" style="shape=link;html=1;rounded=0;" edge="1" parent="1">
          <mxGeometry width="100" relative="1" as="geometry">
            <mxPoint x="200" y="110" as="sourcePoint" />
            <mxPoint x="760" y="110" as="targetPoint" />
          </mxGeometry>
        </mxCell>
        <mxCell id="JdOpnIXiRDE0CS_GIkP6-5" value="" style="endArrow=none;html=1;rounded=0;exitX=0.5;exitY=0;exitDx=0;exitDy=0;" edge="1" parent="1" source="JdOpnIXiRDE0CS_GIkP6-1">
          <mxGeometry width="50" height="50" relative="1" as="geometry">
            <mxPoint x="259.5" y="190" as="sourcePoint" />
            <mxPoint x="259.5" y="110" as="targetPoint" />
          </mxGeometry>
        </mxCell>
        <mxCell id="JdOpnIXiRDE0CS_GIkP6-6" value="" style="endArrow=none;html=1;rounded=0;exitX=0.5;exitY=0;exitDx=0;exitDy=0;" edge="1" parent="1">
          <mxGeometry width="50" height="50" relative="1" as="geometry">
            <mxPoint x="460" y="200" as="sourcePoint" />
            <mxPoint x="459.5" y="110" as="targetPoint" />
          </mxGeometry>
        </mxCell>
        <mxCell id="JdOpnIXiRDE0CS_GIkP6-7" value="" style="endArrow=none;html=1;rounded=0;exitX=0.5;exitY=0;exitDx=0;exitDy=0;" edge="1" parent="1">
          <mxGeometry width="50" height="50" relative="1" as="geometry">
            <mxPoint x="700" y="200" as="sourcePoint" />
            <mxPoint x="699.5" y="110" as="targetPoint" />
          </mxGeometry>
        </mxCell>
        <mxCell id="JdOpnIXiRDE0CS_GIkP6-8" value="" style="shape=hexagon;perimeter=hexagonPerimeter2;whiteSpace=wrap;html=1;fixedSize=1;" vertex="1" parent="1">
          <mxGeometry x="30" y="20" width="120" height="80" as="geometry" />
        </mxCell>
        <mxCell id="JdOpnIXiRDE0CS_GIkP6-9" value="" style="endArrow=none;html=1;rounded=0;" edge="1" parent="1">
          <mxGeometry width="50" height="50" relative="1" as="geometry">
            <mxPoint x="150" y="60" as="sourcePoint" />
            <mxPoint x="260" y="110" as="targetPoint" />
            <Array as="points">
              <mxPoint x="260" y="60" />
            </Array>
          </mxGeometry>
        </mxCell>
        <mxCell id="JdOpnIXiRDE0CS_GIkP6-10" value="Messaging Dienst" style="swimlane;whiteSpace=wrap;html=1;" vertex="1" parent="1">
          <mxGeometry x="370" y="560" width="200" height="200" as="geometry" />
        </mxCell>
        <mxCell id="JdOpnIXiRDE0CS_GIkP6-11" value="&lt;font style=&quot;font-size: 24px;&quot;&gt;Topic&lt;/font&gt;" style="text;html=1;align=center;verticalAlign=middle;whiteSpace=wrap;rounded=0;" vertex="1" parent="JdOpnIXiRDE0CS_GIkP6-10">
          <mxGeometry x="52" y="40" width="60" height="30" as="geometry" />
        </mxCell>
        <mxCell id="JdOpnIXiRDE0CS_GIkP6-18" value="" style="ellipse;shape=cloud;whiteSpace=wrap;html=1;" vertex="1" parent="JdOpnIXiRDE0CS_GIkP6-10">
          <mxGeometry x="12" y="80" width="120" height="80" as="geometry" />
        </mxCell>
        <mxCell id="JdOpnIXiRDE0CS_GIkP6-12" value="" style="shape=process;whiteSpace=wrap;html=1;backgroundOutline=1;" vertex="1" parent="1">
          <mxGeometry x="200" y="580" width="120" height="60" as="geometry" />
        </mxCell>
        <mxCell id="JdOpnIXiRDE0CS_GIkP6-14" value="" style="rounded=0;whiteSpace=wrap;html=1;" vertex="1" parent="1">
          <mxGeometry x="200" y="680" width="120" height="50" as="geometry" />
        </mxCell>
        <mxCell id="JdOpnIXiRDE0CS_GIkP6-15" value="NUR ID" style="text;html=1;align=center;verticalAlign=middle;whiteSpace=wrap;rounded=0;" vertex="1" parent="1">
          <mxGeometry x="230" y="690" width="60" height="30" as="geometry" />
        </mxCell>
        <mxCell id="JdOpnIXiRDE0CS_GIkP6-16" value="Fullpayload" style="text;html=1;align=center;verticalAlign=middle;whiteSpace=wrap;rounded=0;" vertex="1" parent="1">
          <mxGeometry x="230" y="600" width="60" height="30" as="geometry" />
        </mxCell>
        <mxCell id="JdOpnIXiRDE0CS_GIkP6-36" value="" style="shape=note;whiteSpace=wrap;html=1;backgroundOutline=1;darkOpacity=0.05;" vertex="1" parent="1">
          <mxGeometry x="220" y="250" width="80" height="100" as="geometry" />
        </mxCell>
        <mxCell id="JdOpnIXiRDE0CS_GIkP6-37" value="" style="shape=note;whiteSpace=wrap;html=1;backgroundOutline=1;darkOpacity=0.05;" vertex="1" parent="1">
          <mxGeometry x="420" y="250" width="80" height="100" as="geometry" />
        </mxCell>
        <mxCell id="JdOpnIXiRDE0CS_GIkP6-38" value="" style="shape=note;whiteSpace=wrap;html=1;backgroundOutline=1;darkOpacity=0.05;" vertex="1" parent="1">
          <mxGeometry x="660" y="240" width="80" height="100" as="geometry" />
        </mxCell>
        <mxCell id="JdOpnIXiRDE0CS_GIkP6-39" value="" style="shape=cylinder3;whiteSpace=wrap;html=1;boundedLbl=1;backgroundOutline=1;size=15;" vertex="1" parent="1">
          <mxGeometry x="230" y="380" width="60" height="80" as="geometry" />
        </mxCell>
        <mxCell id="JdOpnIXiRDE0CS_GIkP6-40" value="" style="shape=cylinder3;whiteSpace=wrap;html=1;boundedLbl=1;backgroundOutline=1;size=15;" vertex="1" parent="1">
          <mxGeometry x="440" y="390" width="60" height="80" as="geometry" />
        </mxCell>
        <mxCell id="JdOpnIXiRDE0CS_GIkP6-42" value="" style="shape=cylinder3;whiteSpace=wrap;html=1;boundedLbl=1;backgroundOutline=1;size=15;" vertex="1" parent="1">
          <mxGeometry x="660" y="390" width="60" height="80" as="geometry" />
        </mxCell>
        <mxCell id="JdOpnIXiRDE0CS_GIkP6-43" value="Kunden" style="text;html=1;align=center;verticalAlign=middle;whiteSpace=wrap;rounded=0;" vertex="1" parent="1">
          <mxGeometry x="220" y="290" width="60" height="30" as="geometry" />
        </mxCell>
        <mxCell id="JdOpnIXiRDE0CS_GIkP6-44" value="Bestellung" style="text;html=1;align=center;verticalAlign=middle;whiteSpace=wrap;rounded=0;" vertex="1" parent="1">
          <mxGeometry x="430" y="285" width="60" height="30" as="geometry" />
        </mxCell>
        <mxCell id="JdOpnIXiRDE0CS_GIkP6-46" value="Report" style="text;html=1;align=center;verticalAlign=middle;whiteSpace=wrap;rounded=0;" vertex="1" parent="1">
          <mxGeometry x="670" y="280" width="60" height="30" as="geometry" />
        </mxCell>
        <mxCell id="JdOpnIXiRDE0CS_GIkP6-47" value="" style="rounded=0;whiteSpace=wrap;html=1;" vertex="1" parent="1">
          <mxGeometry x="840" y="200" width="120" height="310" as="geometry" />
        </mxCell>
        <mxCell id="JdOpnIXiRDE0CS_GIkP6-48" value="" style="shape=note;whiteSpace=wrap;html=1;backgroundOutline=1;darkOpacity=0.05;" vertex="1" parent="1">
          <mxGeometry x="860" y="240" width="80" height="100" as="geometry" />
        </mxCell>
        <mxCell id="JdOpnIXiRDE0CS_GIkP6-49" value="" style="shape=cylinder3;whiteSpace=wrap;html=1;boundedLbl=1;backgroundOutline=1;size=15;" vertex="1" parent="1">
          <mxGeometry x="860" y="390" width="60" height="80" as="geometry" />
        </mxCell>
        <mxCell id="JdOpnIXiRDE0CS_GIkP6-50" value="Blacklist" style="text;html=1;align=center;verticalAlign=middle;whiteSpace=wrap;rounded=0;" vertex="1" parent="1">
          <mxGeometry x="870" y="290" width="60" height="30" as="geometry" />
        </mxCell>
      </root>
    </mxGraphModel>
  </diagram>
</mxfile>
